<?xml version="1.0" encoding="UTF-8" standalone="no"?>
<!DOCTYPE svg PUBLIC "-//W3C//DTD SVG 1.1//EN"
 "http://www.w3.org/Graphics/SVG/1.1/DTD/svg11.dtd">
<!-- Generated by graphviz version 2.47.0 (20210316.0004)
 -->
<!-- Title: dbml Pages: 1 -->
<svg width="1728pt" height="2339pt"
 viewBox="0.00 0.00 1727.56 2339.35" xmlns="http://www.w3.org/2000/svg" xmlns:xlink="http://www.w3.org/1999/xlink">
<g id="graph0" class="graph" transform="scale(1 1) rotate(0) translate(4 2335.35)">
<title>dbml</title>
<!-- Region -->
<g id="Region" class="node">
<title>Region</title>
<ellipse fill="none" stroke="black" stroke-width="0" cx="1467.83" cy="-780.53" rx="251.96" ry="342.48"/>
<polygon fill="#29235c" stroke="transparent" points="1291.83,-960.53 1291.83,-1020.53 1643.83,-1020.53 1643.83,-960.53 1291.83,-960.53"/>
<polygon fill="none" stroke="#29235c" points="1291.83,-960.53 1291.83,-1020.53 1643.83,-1020.53 1643.83,-960.53 1291.83,-960.53"/>
<text text-anchor="start" x="1354.9" y="-981.73" font-family="Helvetica,sans-Serif" font-weight="bold" font-size="32.00" fill="#ffffff"> &#160;&#160;&#160;&#160;&#160;&#160;Region &#160;&#160;&#160;&#160;&#160;&#160;</text>
<polygon fill="#e7e2dd" stroke="transparent" points="1291.83,-900.53 1291.83,-960.53 1643.83,-960.53 1643.83,-900.53 1291.83,-900.53"/>
<polygon fill="none" stroke="#29235c" points="1291.83,-900.53 1291.83,-960.53 1643.83,-960.53 1643.83,-900.53 1291.83,-900.53"/>
<text text-anchor="start" x="1376.27" y="-921.73" font-family="Helvetica,sans-Serif" font-style="italic" font-size="32.00" fill="#1d71b8"> &#160;&#160;&#160;NORTE &#160;&#160;&#160;</text>
<polygon fill="#e7e2dd" stroke="transparent" points="1291.83,-840.53 1291.83,-900.53 1643.83,-900.53 1643.83,-840.53 1291.83,-840.53"/>
<polygon fill="none" stroke="#29235c" points="1291.83,-840.53 1291.83,-900.53 1643.83,-900.53 1643.83,-840.53 1291.83,-840.53"/>
<text text-anchor="start" x="1364.72" y="-861.73" font-family="Helvetica,sans-Serif" font-style="italic" font-size="32.00" fill="#1d71b8"> &#160;&#160;&#160;CENTRO &#160;&#160;&#160;</text>
<polygon fill="#e7e2dd" stroke="transparent" points="1291.83,-780.53 1291.83,-840.53 1643.83,-840.53 1643.83,-780.53 1291.83,-780.53"/>
<polygon fill="none" stroke="#29235c" points="1291.83,-780.53 1291.83,-840.53 1643.83,-840.53 1643.83,-780.53 1291.83,-780.53"/>
<text text-anchor="start" x="1398.49" y="-801.73" font-family="Helvetica,sans-Serif" font-style="italic" font-size="32.00" fill="#1d71b8"> &#160;&#160;&#160;SUR &#160;&#160;&#160;</text>
<polygon fill="#e7e2dd" stroke="transparent" points="1291.83,-720.53 1291.83,-780.53 1643.83,-780.53 1643.83,-720.53 1291.83,-720.53"/>
<polygon fill="none" stroke="#29235c" points="1291.83,-720.53 1291.83,-780.53 1643.83,-780.53 1643.83,-720.53 1291.83,-720.53"/>
<text text-anchor="start" x="1338.05" y="-741.73" font-family="Helvetica,sans-Serif" font-style="italic" font-size="32.00" fill="#1d71b8"> &#160;&#160;&#160;OCCIDENTE &#160;&#160;&#160;</text>
<polygon fill="#e7e2dd" stroke="transparent" points="1291.83,-660.53 1291.83,-720.53 1643.83,-720.53 1643.83,-660.53 1291.83,-660.53"/>
<polygon fill="none" stroke="#29235c" points="1291.83,-660.53 1291.83,-720.53 1643.83,-720.53 1643.83,-660.53 1291.83,-660.53"/>
<text text-anchor="start" x="1356.7" y="-681.73" font-family="Helvetica,sans-Serif" font-style="italic" font-size="32.00" fill="#1d71b8"> &#160;&#160;&#160;SURESTE &#160;&#160;&#160;</text>
<polygon fill="#e7e2dd" stroke="transparent" points="1291.83,-600.53 1291.83,-660.53 1643.83,-660.53 1643.83,-600.53 1291.83,-600.53"/>
<polygon fill="none" stroke="#29235c" points="1291.83,-600.53 1291.83,-660.53 1643.83,-660.53 1643.83,-600.53 1291.83,-600.53"/>
<text text-anchor="start" x="1385.16" y="-621.73" font-family="Helvetica,sans-Serif" font-style="italic" font-size="32.00" fill="#1d71b8"> &#160;&#160;&#160;CDMX &#160;&#160;&#160;</text>
<polygon fill="#e7e2dd" stroke="transparent" points="1291.83,-540.53 1291.83,-600.53 1643.83,-600.53 1643.83,-540.53 1291.83,-540.53"/>
<polygon fill="none" stroke="#29235c" points="1291.83,-540.53 1291.83,-600.53 1643.83,-600.53 1643.83,-540.53 1291.83,-540.53"/>
<text text-anchor="start" x="1302.49" y="-561.73" font-family="Helvetica,sans-Serif" font-style="italic" font-size="32.00" fill="#1d71b8"> &#160;&#160;&#160;INTERNACIONAL &#160;&#160;&#160;</text>
<polygon fill="none" stroke="#29235c" stroke-width="2" points="1290.83,-539.53 1290.83,-1021.53 1644.83,-1021.53 1644.83,-539.53 1290.83,-539.53"/>
</g>
<!-- HabitCategory -->
<g id="HabitCategory" class="node">
<title>HabitCategory</title>
<ellipse fill="none" stroke="black" stroke-width="0" cx="1467.83" cy="-1881.53" rx="250.13" ry="257.27"/>
<polygon fill="#29235c" stroke="transparent" points="1292.83,-2001.53 1292.83,-2061.53 1642.83,-2061.53 1642.83,-2001.53 1292.83,-2001.53"/>
<polygon fill="none" stroke="#29235c" points="1292.83,-2001.53 1292.83,-2061.53 1642.83,-2061.53 1642.83,-2001.53 1292.83,-2001.53"/>
<text text-anchor="start" x="1303.34" y="-2022.73" font-family="Helvetica,sans-Serif" font-weight="bold" font-size="32.00" fill="#ffffff"> &#160;&#160;&#160;&#160;&#160;&#160;HabitCategory &#160;&#160;&#160;&#160;&#160;&#160;</text>
<polygon fill="#e7e2dd" stroke="transparent" points="1292.83,-1941.53 1292.83,-2001.53 1642.83,-2001.53 1642.83,-1941.53 1292.83,-1941.53"/>
<polygon fill="none" stroke="#29235c" points="1292.83,-1941.53 1292.83,-2001.53 1642.83,-2001.53 1642.83,-1941.53 1292.83,-1941.53"/>
<text text-anchor="start" x="1360.25" y="-1962.73" font-family="Helvetica,sans-Serif" font-style="italic" font-size="32.00" fill="#1d71b8"> &#160;&#160;&#160;ENERGIA &#160;&#160;&#160;</text>
<polygon fill="#e7e2dd" stroke="transparent" points="1292.83,-1881.53 1292.83,-1941.53 1642.83,-1941.53 1642.83,-1881.53 1292.83,-1881.53"/>
<polygon fill="none" stroke="#29235c" points="1292.83,-1881.53 1292.83,-1941.53 1642.83,-1941.53 1642.83,-1881.53 1292.83,-1881.53"/>
<text text-anchor="start" x="1386.92" y="-1902.73" font-family="Helvetica,sans-Serif" font-style="italic" font-size="32.00" fill="#1d71b8"> &#160;&#160;&#160;AGUA &#160;&#160;&#160;</text>
<polygon fill="#e7e2dd" stroke="transparent" points="1292.83,-1821.53 1292.83,-1881.53 1642.83,-1881.53 1642.83,-1821.53 1292.83,-1821.53"/>
<polygon fill="none" stroke="#29235c" points="1292.83,-1821.53 1292.83,-1881.53 1642.83,-1881.53 1642.83,-1821.53 1292.83,-1821.53"/>
<text text-anchor="start" x="1348.7" y="-1842.73" font-family="Helvetica,sans-Serif" font-style="italic" font-size="32.00" fill="#1d71b8"> &#160;&#160;&#160;RESIDUOS &#160;&#160;&#160;</text>
<polygon fill="#e7e2dd" stroke="transparent" points="1292.83,-1761.53 1292.83,-1821.53 1642.83,-1821.53 1642.83,-1761.53 1292.83,-1761.53"/>
<polygon fill="none" stroke="#29235c" points="1292.83,-1761.53 1292.83,-1821.53 1642.83,-1821.53 1642.83,-1761.53 1292.83,-1761.53"/>
<text text-anchor="start" x="1344.26" y="-1782.73" font-family="Helvetica,sans-Serif" font-style="italic" font-size="32.00" fill="#1d71b8"> &#160;&#160;&#160;MOVILIDAD &#160;&#160;&#160;</text>
<polygon fill="#e7e2dd" stroke="transparent" points="1292.83,-1701.53 1292.83,-1761.53 1642.83,-1761.53 1642.83,-1701.53 1292.83,-1701.53"/>
<polygon fill="none" stroke="#29235c" points="1292.83,-1701.53 1292.83,-1761.53 1642.83,-1761.53 1642.83,-1701.53 1292.83,-1701.53"/>
<text text-anchor="start" x="1348.72" y="-1722.73" font-family="Helvetica,sans-Serif" font-style="italic" font-size="32.00" fill="#1d71b8"> &#160;&#160;&#160;CONSUMO &#160;&#160;&#160;</text>
<polygon fill="none" stroke="#29235c" stroke-width="2" points="1291.83,-1700.53 1291.83,-2062.53 1643.83,-2062.53 1643.83,-1700.53 1291.83,-1700.53"/>
</g>
<!-- HabitStatus -->
<g id="HabitStatus" class="node">
<title>HabitStatus</title>
<ellipse fill="none" stroke="black" stroke-width="0" cx="891.6" cy="-1643.53" rx="226.96" ry="214.92"/>
<polygon fill="#29235c" stroke="transparent" points="733.6,-1733.53 733.6,-1793.53 1050.6,-1793.53 1050.6,-1733.53 733.6,-1733.53"/>
<polygon fill="none" stroke="#29235c" points="733.6,-1733.53 733.6,-1793.53 1050.6,-1793.53 1050.6,-1733.53 733.6,-1733.53"/>
<text text-anchor="start" x="747.16" y="-1754.73" font-family="Helvetica,sans-Serif" font-weight="bold" font-size="32.00" fill="#ffffff"> &#160;&#160;&#160;&#160;&#160;&#160;HabitStatus &#160;&#160;&#160;&#160;&#160;&#160;</text>
<polygon fill="#e7e2dd" stroke="transparent" points="733.6,-1673.53 733.6,-1733.53 1050.6,-1733.53 1050.6,-1673.53 733.6,-1673.53"/>
<polygon fill="none" stroke="#29235c" points="733.6,-1673.53 733.6,-1733.53 1050.6,-1733.53 1050.6,-1673.53 733.6,-1673.53"/>
<text text-anchor="start" x="796.97" y="-1694.73" font-family="Helvetica,sans-Serif" font-style="italic" font-size="32.00" fill="#1d71b8"> &#160;&#160;&#160;ACTIVO &#160;&#160;&#160;</text>
<polygon fill="#e7e2dd" stroke="transparent" points="733.6,-1613.53 733.6,-1673.53 1050.6,-1673.53 1050.6,-1613.53 733.6,-1613.53"/>
<polygon fill="none" stroke="#29235c" points="733.6,-1613.53 733.6,-1673.53 1050.6,-1673.53 1050.6,-1613.53 733.6,-1613.53"/>
<text text-anchor="start" x="778.3" y="-1634.73" font-family="Helvetica,sans-Serif" font-style="italic" font-size="32.00" fill="#1d71b8"> &#160;&#160;&#160;PAUSADO &#160;&#160;&#160;</text>
<polygon fill="#e7e2dd" stroke="transparent" points="733.6,-1553.53 733.6,-1613.53 1050.6,-1613.53 1050.6,-1553.53 733.6,-1553.53"/>
<polygon fill="none" stroke="#29235c" points="733.6,-1553.53 733.6,-1613.53 1050.6,-1613.53 1050.6,-1553.53 733.6,-1553.53"/>
<text text-anchor="start" x="744.53" y="-1574.73" font-family="Helvetica,sans-Serif" font-style="italic" font-size="32.00" fill="#1d71b8"> &#160;&#160;&#160;COMPLETADO &#160;&#160;&#160;</text>
<polygon fill="#e7e2dd" stroke="transparent" points="733.6,-1493.53 733.6,-1553.53 1050.6,-1553.53 1050.6,-1493.53 733.6,-1493.53"/>
<polygon fill="none" stroke="#29235c" points="733.6,-1493.53 733.6,-1553.53 1050.6,-1553.53 1050.6,-1493.53 733.6,-1493.53"/>
<text text-anchor="start" x="756.97" y="-1514.73" font-family="Helvetica,sans-Serif" font-style="italic" font-size="32.00" fill="#1d71b8"> &#160;&#160;&#160;CANCELADO &#160;&#160;&#160;</text>
<polygon fill="none" stroke="#29235c" stroke-width="2" points="732.1,-1492.53 732.1,-1794.53 1051.1,-1794.53 1051.1,-1492.53 732.1,-1492.53"/>
</g>
<!-- InteractionType -->
<g id="InteractionType" class="node">
<title>InteractionType</title>
<ellipse fill="none" stroke="black" stroke-width="0" cx="891.6" cy="-577.53" rx="262.17" ry="214.92"/>
<polygon fill="#29235c" stroke="transparent" points="708.6,-667.53 708.6,-727.53 1075.6,-727.53 1075.6,-667.53 708.6,-667.53"/>
<polygon fill="none" stroke="#29235c" points="708.6,-667.53 708.6,-727.53 1075.6,-727.53 1075.6,-667.53 708.6,-667.53"/>
<text text-anchor="start" x="719.6" y="-688.73" font-family="Helvetica,sans-Serif" font-weight="bold" font-size="32.00" fill="#ffffff"> &#160;&#160;&#160;&#160;&#160;&#160;InteractionType &#160;&#160;&#160;&#160;&#160;&#160;</text>
<polygon fill="#e7e2dd" stroke="transparent" points="708.6,-607.53 708.6,-667.53 1075.6,-667.53 1075.6,-607.53 708.6,-607.53"/>
<polygon fill="none" stroke="#29235c" points="708.6,-607.53 708.6,-667.53 1075.6,-667.53 1075.6,-607.53 708.6,-607.53"/>
<text text-anchor="start" x="809.42" y="-628.73" font-family="Helvetica,sans-Serif" font-style="italic" font-size="32.00" fill="#1d71b8"> &#160;&#160;&#160;CLICK &#160;&#160;&#160;</text>
<polygon fill="#e7e2dd" stroke="transparent" points="708.6,-547.53 708.6,-607.53 1075.6,-607.53 1075.6,-547.53 708.6,-547.53"/>
<polygon fill="none" stroke="#29235c" points="708.6,-547.53 708.6,-607.53 1075.6,-607.53 1075.6,-547.53 708.6,-547.53"/>
<text text-anchor="start" x="793.42" y="-568.73" font-family="Helvetica,sans-Serif" font-style="italic" font-size="32.00" fill="#1d71b8"> &#160;&#160;&#160;IGNORE &#160;&#160;&#160;</text>
<polygon fill="#e7e2dd" stroke="transparent" points="708.6,-487.53 708.6,-547.53 1075.6,-547.53 1075.6,-487.53 708.6,-487.53"/>
<polygon fill="none" stroke="#29235c" points="708.6,-487.53 708.6,-547.53 1075.6,-547.53 1075.6,-487.53 708.6,-487.53"/>
<text text-anchor="start" x="768.52" y="-508.73" font-family="Helvetica,sans-Serif" font-style="italic" font-size="32.00" fill="#1d71b8"> &#160;&#160;&#160;COMPLETE &#160;&#160;&#160;</text>
<polygon fill="#e7e2dd" stroke="transparent" points="708.6,-427.53 708.6,-487.53 1075.6,-487.53 1075.6,-427.53 708.6,-427.53"/>
<polygon fill="none" stroke="#29235c" points="708.6,-427.53 708.6,-487.53 1075.6,-487.53 1075.6,-427.53 708.6,-427.53"/>
<text text-anchor="start" x="820.07" y="-448.73" font-family="Helvetica,sans-Serif" font-style="italic" font-size="32.00" fill="#1d71b8"> &#160;&#160;&#160;SKIP &#160;&#160;&#160;</text>
<polygon fill="none" stroke="#29235c" stroke-width="2" points="707.1,-426.53 707.1,-728.53 1076.1,-728.53 1076.1,-426.53 707.1,-426.53"/>
</g>
<!-- ProfileType -->
<g id="ProfileType" class="node">
<title>ProfileType</title>
<ellipse fill="none" stroke="black" stroke-width="0" cx="891.6" cy="-172.53" rx="288.5" ry="172.57"/>
<polygon fill="#29235c" stroke="transparent" points="689.6,-232.53 689.6,-292.53 1093.6,-292.53 1093.6,-232.53 689.6,-232.53"/>
<polygon fill="none" stroke="#29235c" points="689.6,-232.53 689.6,-292.53 1093.6,-292.53 1093.6,-232.53 689.6,-232.53"/>
<text text-anchor="start" x="748.45" y="-253.73" font-family="Helvetica,sans-Serif" font-weight="bold" font-size="32.00" fill="#ffffff"> &#160;&#160;&#160;&#160;&#160;&#160;ProfileType &#160;&#160;&#160;&#160;&#160;&#160;</text>
<polygon fill="#e7e2dd" stroke="transparent" points="689.6,-172.53 689.6,-232.53 1093.6,-232.53 1093.6,-172.53 689.6,-172.53"/>
<polygon fill="none" stroke="#29235c" points="689.6,-172.53 689.6,-232.53 1093.6,-232.53 1093.6,-172.53 689.6,-172.53"/>
<text text-anchor="start" x="700.47" y="-193.73" font-family="Helvetica,sans-Serif" font-style="italic" font-size="32.00" fill="#1d71b8"> &#160;&#160;&#160;ECO_PRINCIPIANTE &#160;&#160;&#160;</text>
<polygon fill="#e7e2dd" stroke="transparent" points="689.6,-112.53 689.6,-172.53 1093.6,-172.53 1093.6,-112.53 689.6,-112.53"/>
<polygon fill="none" stroke="#29235c" points="689.6,-112.53 689.6,-172.53 1093.6,-172.53 1093.6,-112.53 689.6,-112.53"/>
<text text-anchor="start" x="724.46" y="-133.73" font-family="Helvetica,sans-Serif" font-style="italic" font-size="32.00" fill="#1d71b8"> &#160;&#160;&#160;ECO_AVANZADO &#160;&#160;&#160;</text>
<polygon fill="#e7e2dd" stroke="transparent" points="689.6,-52.53 689.6,-112.53 1093.6,-112.53 1093.6,-52.53 689.6,-52.53"/>
<polygon fill="none" stroke="#29235c" points="689.6,-52.53 689.6,-112.53 1093.6,-112.53 1093.6,-52.53 689.6,-52.53"/>
<text text-anchor="start" x="736.01" y="-73.73" font-family="Helvetica,sans-Serif" font-style="italic" font-size="32.00" fill="#1d71b8"> &#160;&#160;&#160;ECO_EXPERTO &#160;&#160;&#160;</text>
<polygon fill="none" stroke="#29235c" stroke-width="2" points="688.6,-51.53 688.6,-293.53 1094.6,-293.53 1094.6,-51.53 688.6,-51.53"/>
</g>
<!-- User -->
<g id="User" class="node">
<title>User</title>
<ellipse fill="none" stroke="black" stroke-width="0" cx="891.6" cy="-1110.53" rx="237.68" ry="299.63"/>
<polygon fill="#1d71b8" stroke="transparent" points="725.6,-1260.53 725.6,-1320.53 1057.6,-1320.53 1057.6,-1260.53 725.6,-1260.53"/>
<polygon fill="none" stroke="#29235c" points="725.6,-1260.53 725.6,-1320.53 1057.6,-1320.53 1057.6,-1260.53 725.6,-1260.53"/>
<text text-anchor="start" x="795.58" y="-1281.73" font-family="Helvetica,sans-Serif" font-weight="bold" font-size="32.00" fill="#ffffff"> &#160;&#160;&#160;&#160;&#160;&#160;User &#160;&#160;&#160;&#160;&#160;&#160;</text>
<polygon fill="#e7e2dd" stroke="transparent" points="725.6,-1200.53 725.6,-1260.53 1057.6,-1260.53 1057.6,-1200.53 725.6,-1200.53"/>
<polygon fill="none" stroke="#29235c" points="725.6,-1200.53 725.6,-1260.53 1057.6,-1260.53 1057.6,-1200.53 725.6,-1200.53"/>
<text text-anchor="start" x="736.6" y="-1221.73" font-family="Helvetica,sans-Serif" font-weight="bold" font-size="32.00" fill="#29235c">id</text>
<text text-anchor="start" x="761.49" y="-1221.73" font-family="Helvetica,sans-Serif" font-size="32.00" fill="#29235c"> &#160;&#160;&#160;</text>
<text text-anchor="start" x="968.4" y="-1221.73" font-family="Helvetica,sans-Serif" font-style="italic" font-size="32.00" fill="#29235c">UUID</text>
<polygon fill="#e7e2dd" stroke="transparent" points="725.6,-1140.53 725.6,-1200.53 1057.6,-1200.53 1057.6,-1140.53 725.6,-1140.53"/>
<polygon fill="none" stroke="#29235c" points="725.6,-1140.53 725.6,-1200.53 1057.6,-1200.53 1057.6,-1140.53 725.6,-1140.53"/>
<text text-anchor="start" x="736.6" y="-1160.73" font-family="Helvetica,sans-Serif" font-size="32.00" fill="#29235c">name &#160;&#160;&#160;</text>
<text text-anchor="start" x="963.03" y="-1161.73" font-family="Helvetica,sans-Serif" font-style="italic" font-size="32.00" fill="#29235c">String</text>
<polygon fill="#e7e2dd" stroke="transparent" points="725.6,-1080.53 725.6,-1140.53 1057.6,-1140.53 1057.6,-1080.53 725.6,-1080.53"/>
<polygon fill="none" stroke="#29235c" points="725.6,-1080.53 725.6,-1140.53 1057.6,-1140.53 1057.6,-1080.53 725.6,-1080.53"/>
<text text-anchor="start" x="736.6" y="-1100.73" font-family="Helvetica,sans-Serif" font-size="32.00" fill="#29235c">email &#160;&#160;&#160;</text>
<text text-anchor="start" x="963.03" y="-1101.73" font-family="Helvetica,sans-Serif" font-style="italic" font-size="32.00" fill="#29235c">String</text>
<polygon fill="#e7e2dd" stroke="transparent" points="725.6,-1020.53 725.6,-1080.53 1057.6,-1080.53 1057.6,-1020.53 725.6,-1020.53"/>
<polygon fill="none" stroke="#29235c" points="725.6,-1020.53 725.6,-1080.53 1057.6,-1080.53 1057.6,-1020.53 725.6,-1020.53"/>
<text text-anchor="start" x="736.6" y="-1040.73" font-family="Helvetica,sans-Serif" font-size="32.00" fill="#29235c">age &#160;&#160;&#160;</text>
<text text-anchor="start" x="1011.02" y="-1041.73" font-family="Helvetica,sans-Serif" font-style="italic" font-size="32.00" fill="#29235c">Int</text>
<polygon fill="#e7e2dd" stroke="transparent" points="725.6,-960.53 725.6,-1020.53 1057.6,-1020.53 1057.6,-960.53 725.6,-960.53"/>
<polygon fill="none" stroke="#29235c" points="725.6,-960.53 725.6,-1020.53 1057.6,-1020.53 1057.6,-960.53 725.6,-960.53"/>
<text text-anchor="start" x="736.6" y="-980.73" font-family="Helvetica,sans-Serif" font-size="32.00" fill="#29235c">region &#160;&#160;&#160;</text>
<text text-anchor="start" x="945.24" y="-981.73" font-family="Helvetica,sans-Serif" font-style="italic" font-size="32.00" fill="#29235c">Region</text>
<polygon fill="#e7e2dd" stroke="transparent" points="725.6,-900.53 725.6,-960.53 1057.6,-960.53 1057.6,-900.53 725.6,-900.53"/>
<polygon fill="none" stroke="#29235c" points="725.6,-900.53 725.6,-960.53 1057.6,-960.53 1057.6,-900.53 725.6,-900.53"/>
<text text-anchor="start" x="736.35" y="-920.73" font-family="Helvetica,sans-Serif" font-size="32.00" fill="#29235c">createdAt &#160;&#160;&#160;</text>
<text text-anchor="start" x="908.27" y="-921.73" font-family="Helvetica,sans-Serif" font-style="italic" font-size="32.00" fill="#29235c">DateTime</text>
<polygon fill="none" stroke="#29235c" stroke-width="2" points="724.6,-899.53 724.6,-1321.53 1058.6,-1321.53 1058.6,-899.53 724.6,-899.53"/>
</g>
<!-- User&#45;&gt;Region -->
<g id="edge11" class="edge">
<title>User:e&#45;&gt;Region:w</title>
<path fill="none" stroke="#29235c" stroke-width="3" d="M1058.6,-990.53C1161.81,-990.53 1187.62,-990.53 1290.83,-990.53"/>
</g>
<!-- Habit -->
<g id="Habit" class="node">
<title>Habit</title>
<ellipse fill="none" stroke="black" stroke-width="0" cx="891.6" cy="-2091.53" rx="274.21" ry="214.92"/>
<polygon fill="#1d71b8" stroke="transparent" points="699.6,-2181.53 699.6,-2241.53 1083.6,-2241.53 1083.6,-2181.53 699.6,-2181.53"/>
<polygon fill="none" stroke="#29235c" points="699.6,-2181.53 699.6,-2241.53 1083.6,-2241.53 1083.6,-2181.53 699.6,-2181.53"/>
<text text-anchor="start" x="792.01" y="-2202.73" font-family="Helvetica,sans-Serif" font-weight="bold" font-size="32.00" fill="#ffffff"> &#160;&#160;&#160;&#160;&#160;&#160;Habit &#160;&#160;&#160;&#160;&#160;&#160;</text>
<polygon fill="#e7e2dd" stroke="transparent" points="699.6,-2121.53 699.6,-2181.53 1083.6,-2181.53 1083.6,-2121.53 699.6,-2121.53"/>
<polygon fill="none" stroke="#29235c" points="699.6,-2121.53 699.6,-2181.53 1083.6,-2181.53 1083.6,-2121.53 699.6,-2121.53"/>
<text text-anchor="start" x="710.6" y="-2142.73" font-family="Helvetica,sans-Serif" font-weight="bold" font-size="32.00" fill="#29235c">id</text>
<text text-anchor="start" x="735.49" y="-2142.73" font-family="Helvetica,sans-Serif" font-size="32.00" fill="#29235c"> &#160;&#160;&#160;</text>
<text text-anchor="start" x="994.4" y="-2142.73" font-family="Helvetica,sans-Serif" font-style="italic" font-size="32.00" fill="#29235c">UUID</text>
<polygon fill="#e7e2dd" stroke="transparent" points="699.6,-2061.53 699.6,-2121.53 1083.6,-2121.53 1083.6,-2061.53 699.6,-2061.53"/>
<polygon fill="none" stroke="#29235c" points="699.6,-2061.53 699.6,-2121.53 1083.6,-2121.53 1083.6,-2061.53 699.6,-2061.53"/>
<text text-anchor="start" x="710.6" y="-2081.73" font-family="Helvetica,sans-Serif" font-size="32.00" fill="#29235c">name &#160;&#160;&#160;</text>
<text text-anchor="start" x="989.03" y="-2082.73" font-family="Helvetica,sans-Serif" font-style="italic" font-size="32.00" fill="#29235c">String</text>
<polygon fill="#e7e2dd" stroke="transparent" points="699.6,-2001.53 699.6,-2061.53 1083.6,-2061.53 1083.6,-2001.53 699.6,-2001.53"/>
<polygon fill="none" stroke="#29235c" points="699.6,-2001.53 699.6,-2061.53 1083.6,-2061.53 1083.6,-2001.53 699.6,-2001.53"/>
<text text-anchor="start" x="710.46" y="-2021.73" font-family="Helvetica,sans-Serif" font-size="32.00" fill="#29235c">category &#160;&#160;&#160;</text>
<text text-anchor="start" x="868.36" y="-2022.73" font-family="Helvetica,sans-Serif" font-style="italic" font-size="32.00" fill="#29235c">HabitCategory</text>
<polygon fill="#e7e2dd" stroke="transparent" points="699.6,-1941.53 699.6,-2001.53 1083.6,-2001.53 1083.6,-1941.53 699.6,-1941.53"/>
<polygon fill="none" stroke="#29235c" points="699.6,-1941.53 699.6,-2001.53 1083.6,-2001.53 1083.6,-1941.53 699.6,-1941.53"/>
<text text-anchor="start" x="710.6" y="-1961.73" font-family="Helvetica,sans-Serif" font-size="32.00" fill="#29235c">description &#160;&#160;&#160;</text>
<text text-anchor="start" x="989.03" y="-1962.73" font-family="Helvetica,sans-Serif" font-style="italic" font-size="32.00" fill="#29235c">String</text>
<polygon fill="none" stroke="#29235c" stroke-width="2" points="698.6,-1940.53 698.6,-2242.53 1084.6,-2242.53 1084.6,-1940.53 698.6,-1940.53"/>
</g>
<!-- Habit&#45;&gt;HabitCategory -->
<g id="edge12" class="edge">
<title>Habit:e&#45;&gt;HabitCategory:w</title>
<path fill="none" stroke="#29235c" stroke-width="3" d="M1084.6,-2031.53C1176.7,-2031.53 1199.73,-2031.53 1291.83,-2031.53"/>
</g>
<!-- UserHabit -->
<g id="UserHabit" class="node">
<title>UserHabit</title>
<ellipse fill="none" stroke="black" stroke-width="0" cx="283.55" cy="-2031.53" rx="266.66" ry="299.63"/>
<polygon fill="#1d71b8" stroke="transparent" points="97.55,-2181.53 97.55,-2241.53 470.55,-2241.53 470.55,-2181.53 97.55,-2181.53"/>
<polygon fill="none" stroke="#29235c" points="97.55,-2181.53 97.55,-2241.53 470.55,-2241.53 470.55,-2181.53 97.55,-2181.53"/>
<text text-anchor="start" x="150.69" y="-2202.73" font-family="Helvetica,sans-Serif" font-weight="bold" font-size="32.00" fill="#ffffff"> &#160;&#160;&#160;&#160;&#160;&#160;UserHabit &#160;&#160;&#160;&#160;&#160;&#160;</text>
<polygon fill="#e7e2dd" stroke="transparent" points="97.55,-2121.53 97.55,-2181.53 470.55,-2181.53 470.55,-2121.53 97.55,-2121.53"/>
<polygon fill="none" stroke="#29235c" points="97.55,-2121.53 97.55,-2181.53 470.55,-2181.53 470.55,-2121.53 97.55,-2121.53"/>
<text text-anchor="start" x="108.55" y="-2142.73" font-family="Helvetica,sans-Serif" font-weight="bold" font-size="32.00" fill="#29235c">id</text>
<text text-anchor="start" x="133.44" y="-2142.73" font-family="Helvetica,sans-Serif" font-size="32.00" fill="#29235c"> &#160;&#160;&#160;</text>
<text text-anchor="start" x="381.35" y="-2142.73" font-family="Helvetica,sans-Serif" font-style="italic" font-size="32.00" fill="#29235c">UUID</text>
<polygon fill="#e7e2dd" stroke="transparent" points="97.55,-2061.53 97.55,-2121.53 470.55,-2121.53 470.55,-2061.53 97.55,-2061.53"/>
<polygon fill="none" stroke="#29235c" points="97.55,-2061.53 97.55,-2121.53 470.55,-2121.53 470.55,-2061.53 97.55,-2061.53"/>
<text text-anchor="start" x="108.55" y="-2081.73" font-family="Helvetica,sans-Serif" font-size="32.00" fill="#29235c">userId &#160;&#160;&#160;</text>
<text text-anchor="start" x="381.35" y="-2082.73" font-family="Helvetica,sans-Serif" font-style="italic" font-size="32.00" fill="#29235c">UUID</text>
<polygon fill="#e7e2dd" stroke="transparent" points="97.55,-2001.53 97.55,-2061.53 470.55,-2061.53 470.55,-2001.53 97.55,-2001.53"/>
<polygon fill="none" stroke="#29235c" points="97.55,-2001.53 97.55,-2061.53 470.55,-2061.53 470.55,-2001.53 97.55,-2001.53"/>
<text text-anchor="start" x="108.55" y="-2021.73" font-family="Helvetica,sans-Serif" font-size="32.00" fill="#29235c">habitId &#160;&#160;&#160;</text>
<text text-anchor="start" x="381.35" y="-2022.73" font-family="Helvetica,sans-Serif" font-style="italic" font-size="32.00" fill="#29235c">UUID</text>
<polygon fill="#e7e2dd" stroke="transparent" points="97.55,-1941.53 97.55,-2001.53 470.55,-2001.53 470.55,-1941.53 97.55,-1941.53"/>
<polygon fill="none" stroke="#29235c" points="97.55,-1941.53 97.55,-2001.53 470.55,-2001.53 470.55,-1941.53 97.55,-1941.53"/>
<text text-anchor="start" x="108.55" y="-1961.73" font-family="Helvetica,sans-Serif" font-size="32.00" fill="#29235c">status &#160;&#160;&#160;</text>
<text text-anchor="start" x="294.17" y="-1962.73" font-family="Helvetica,sans-Serif" font-style="italic" font-size="32.00" fill="#29235c">HabitStatus</text>
<polygon fill="#e7e2dd" stroke="transparent" points="97.55,-1881.53 97.55,-1941.53 470.55,-1941.53 470.55,-1881.53 97.55,-1881.53"/>
<polygon fill="none" stroke="#29235c" points="97.55,-1881.53 97.55,-1941.53 470.55,-1941.53 470.55,-1881.53 97.55,-1881.53"/>
<text text-anchor="start" x="108.55" y="-1901.73" font-family="Helvetica,sans-Serif" font-size="32.00" fill="#29235c">scheduledTime &#160;&#160;&#160;</text>
<text text-anchor="start" x="375.99" y="-1902.73" font-family="Helvetica,sans-Serif" font-style="italic" font-size="32.00" fill="#29235c">String</text>
<polygon fill="#e7e2dd" stroke="transparent" points="97.55,-1821.53 97.55,-1881.53 470.55,-1881.53 470.55,-1821.53 97.55,-1821.53"/>
<polygon fill="none" stroke="#29235c" points="97.55,-1821.53 97.55,-1881.53 470.55,-1881.53 470.55,-1821.53 97.55,-1821.53"/>
<text text-anchor="start" x="108.35" y="-1841.73" font-family="Helvetica,sans-Serif" font-size="32.00" fill="#29235c">completedAt &#160;&#160;&#160;</text>
<text text-anchor="start" x="321.22" y="-1842.73" font-family="Helvetica,sans-Serif" font-style="italic" font-size="32.00" fill="#29235c">DateTime</text>
<polygon fill="none" stroke="#29235c" stroke-width="2" points="96.05,-1820.53 96.05,-2242.53 471.05,-2242.53 471.05,-1820.53 96.05,-1820.53"/>
</g>
<!-- UserHabit&#45;&gt;HabitStatus -->
<g id="edge13" class="edge">
<title>UserHabit:e&#45;&gt;HabitStatus:w</title>
<path fill="none" stroke="#29235c" stroke-width="3" d="M471.55,-1971.53C619.9,-1971.53 584.25,-1763.53 732.6,-1763.53"/>
</g>
<!-- UserHabit&#45;&gt;User -->
<!-- UserHabit&#45;&gt;User -->
<g id="edge2" class="edge">
<title>UserHabit:e&#45;&gt;User:w</title>
<path fill="none" stroke="#29235c" stroke-width="3" d="M471.55,-2091.53C623.72,-2091.53 551.67,-1562.75 603.1,-1419.53 635.67,-1328.86 625.53,-1237.21 714.48,-1230.88"/>
<polygon fill="#29235c" stroke="#29235c" stroke-width="3" points="714.73,-1234.38 724.6,-1230.53 714.48,-1227.38 714.73,-1234.38"/>
<text text-anchor="middle" x="733.49" y="-1240.13" font-family="Helvetica,sans-Serif" font-size="32.00" fill="#29235c">1</text>
<text text-anchor="middle" x="465.33" y="-2101.13" font-family="Helvetica,sans-Serif" font-size="32.00" fill="#29235c">*</text>
</g>
<!-- UserHabit&#45;&gt;Habit -->
<!-- UserHabit&#45;&gt;Habit -->
<g id="edge4" class="edge">
<title>UserHabit:e&#45;&gt;Habit:w</title>
<path fill="none" stroke="#29235c" stroke-width="3" d="M471.55,-2031.53C582.23,-2031.53 584.43,-2144.38 688.54,-2151.21"/>
<polygon fill="#29235c" stroke="#29235c" stroke-width="3" points="688.49,-2154.71 698.6,-2151.53 688.72,-2147.71 688.49,-2154.71"/>
<text text-anchor="middle" x="707.49" y="-2161.13" font-family="Helvetica,sans-Serif" font-size="32.00" fill="#29235c">1</text>
<text text-anchor="middle" x="465.33" y="-2041.13" font-family="Helvetica,sans-Serif" font-size="32.00" fill="#29235c">*</text>
</g>
<!-- Recommendation -->
<g id="Recommendation" class="node">
<title>Recommendation</title>
<ellipse fill="none" stroke="black" stroke-width="0" cx="283.55" cy="-1456.53" rx="283.6" ry="257.27"/>
<polygon fill="#1d71b8" stroke="transparent" points="85.55,-1576.53 85.55,-1636.53 482.55,-1636.53 482.55,-1576.53 85.55,-1576.53"/>
<polygon fill="none" stroke="#29235c" points="85.55,-1576.53 85.55,-1636.53 482.55,-1636.53 482.55,-1576.53 85.55,-1576.53"/>
<text text-anchor="start" x="96.45" y="-1597.73" font-family="Helvetica,sans-Serif" font-weight="bold" font-size="32.00" fill="#ffffff"> &#160;&#160;&#160;&#160;&#160;&#160;Recommendation &#160;&#160;&#160;&#160;&#160;&#160;</text>
<polygon fill="#e7e2dd" stroke="transparent" points="85.55,-1516.53 85.55,-1576.53 482.55,-1576.53 482.55,-1516.53 85.55,-1516.53"/>
<polygon fill="none" stroke="#29235c" points="85.55,-1516.53 85.55,-1576.53 482.55,-1576.53 482.55,-1516.53 85.55,-1516.53"/>
<text text-anchor="start" x="96.55" y="-1537.73" font-family="Helvetica,sans-Serif" font-weight="bold" font-size="32.00" fill="#29235c">id</text>
<text text-anchor="start" x="121.44" y="-1537.73" font-family="Helvetica,sans-Serif" font-size="32.00" fill="#29235c"> &#160;&#160;&#160;</text>
<text text-anchor="start" x="393.35" y="-1537.73" font-family="Helvetica,sans-Serif" font-style="italic" font-size="32.00" fill="#29235c">UUID</text>
<polygon fill="#e7e2dd" stroke="transparent" points="85.55,-1456.53 85.55,-1516.53 482.55,-1516.53 482.55,-1456.53 85.55,-1456.53"/>
<polygon fill="none" stroke="#29235c" points="85.55,-1456.53 85.55,-1516.53 482.55,-1516.53 482.55,-1456.53 85.55,-1456.53"/>
<text text-anchor="start" x="96.55" y="-1476.73" font-family="Helvetica,sans-Serif" font-size="32.00" fill="#29235c">userId &#160;&#160;&#160;</text>
<text text-anchor="start" x="393.35" y="-1477.73" font-family="Helvetica,sans-Serif" font-style="italic" font-size="32.00" fill="#29235c">UUID</text>
<polygon fill="#e7e2dd" stroke="transparent" points="85.55,-1396.53 85.55,-1456.53 482.55,-1456.53 482.55,-1396.53 85.55,-1396.53"/>
<polygon fill="none" stroke="#29235c" points="85.55,-1396.53 85.55,-1456.53 482.55,-1456.53 482.55,-1396.53 85.55,-1396.53"/>
<text text-anchor="start" x="96.55" y="-1416.73" font-family="Helvetica,sans-Serif" font-size="32.00" fill="#29235c">message &#160;&#160;&#160;</text>
<text text-anchor="start" x="387.99" y="-1417.73" font-family="Helvetica,sans-Serif" font-style="italic" font-size="32.00" fill="#29235c">String</text>
<polygon fill="#e7e2dd" stroke="transparent" points="85.55,-1336.53 85.55,-1396.53 482.55,-1396.53 482.55,-1336.53 85.55,-1336.53"/>
<polygon fill="none" stroke="#29235c" points="85.55,-1336.53 85.55,-1396.53 482.55,-1396.53 482.55,-1336.53 85.55,-1336.53"/>
<text text-anchor="start" x="96.55" y="-1356.73" font-family="Helvetica,sans-Serif" font-size="32.00" fill="#29235c">createdAt &#160;&#160;&#160;</text>
<text text-anchor="start" x="332.89" y="-1357.73" font-family="Helvetica,sans-Serif" font-style="italic" font-size="32.00" fill="#29235c">DateTime</text>
<polygon fill="#e7e2dd" stroke="transparent" points="85.55,-1276.53 85.55,-1336.53 482.55,-1336.53 482.55,-1276.53 85.55,-1276.53"/>
<polygon fill="none" stroke="#29235c" points="85.55,-1276.53 85.55,-1336.53 482.55,-1336.53 482.55,-1276.53 85.55,-1276.53"/>
<text text-anchor="start" x="96.55" y="-1296.73" font-family="Helvetica,sans-Serif" font-size="32.00" fill="#29235c">shownTime &#160;&#160;&#160;</text>
<text text-anchor="start" x="387.99" y="-1297.73" font-family="Helvetica,sans-Serif" font-style="italic" font-size="32.00" fill="#29235c">String</text>
<polygon fill="none" stroke="#29235c" stroke-width="2" points="84.05,-1275.53 84.05,-1637.53 483.05,-1637.53 483.05,-1275.53 84.05,-1275.53"/>
</g>
<!-- Recommendation&#45;&gt;User -->
<!-- Recommendation&#45;&gt;User -->
<g id="edge6" class="edge">
<title>Recommendation:e&#45;&gt;User:w</title>
<path fill="none" stroke="#29235c" stroke-width="3" d="M483.55,-1486.53C636.32,-1486.53 571.42,-1241.9 714.41,-1230.92"/>
<polygon fill="#29235c" stroke="#29235c" stroke-width="3" points="714.74,-1234.41 724.6,-1230.53 714.48,-1227.41 714.74,-1234.41"/>
<text text-anchor="middle" x="733.49" y="-1201.73" font-family="Helvetica,sans-Serif" font-size="32.00" fill="#29235c">1</text>
<text text-anchor="middle" x="477.33" y="-1496.13" font-family="Helvetica,sans-Serif" font-size="32.00" fill="#29235c">*</text>
</g>
<!-- Interaction -->
<g id="Interaction" class="node">
<title>Interaction</title>
<ellipse fill="none" stroke="black" stroke-width="0" cx="283.55" cy="-923.53" rx="245.23" ry="257.27"/>
<polygon fill="#1d71b8" stroke="transparent" points="112.55,-1043.53 112.55,-1103.53 455.55,-1103.53 455.55,-1043.53 112.55,-1043.53"/>
<polygon fill="none" stroke="#29235c" points="112.55,-1043.53 112.55,-1103.53 455.55,-1103.53 455.55,-1043.53 112.55,-1043.53"/>
<text text-anchor="start" x="147.11" y="-1064.73" font-family="Helvetica,sans-Serif" font-weight="bold" font-size="32.00" fill="#ffffff"> &#160;&#160;&#160;&#160;&#160;&#160;Interaction &#160;&#160;&#160;&#160;&#160;&#160;</text>
<polygon fill="#e7e2dd" stroke="transparent" points="112.55,-983.53 112.55,-1043.53 455.55,-1043.53 455.55,-983.53 112.55,-983.53"/>
<polygon fill="none" stroke="#29235c" points="112.55,-983.53 112.55,-1043.53 455.55,-1043.53 455.55,-983.53 112.55,-983.53"/>
<text text-anchor="start" x="123.55" y="-1004.73" font-family="Helvetica,sans-Serif" font-weight="bold" font-size="32.00" fill="#29235c">id</text>
<text text-anchor="start" x="148.44" y="-1004.73" font-family="Helvetica,sans-Serif" font-size="32.00" fill="#29235c"> &#160;&#160;&#160;</text>
<text text-anchor="start" x="366.35" y="-1004.73" font-family="Helvetica,sans-Serif" font-style="italic" font-size="32.00" fill="#29235c">UUID</text>
<polygon fill="#e7e2dd" stroke="transparent" points="112.55,-923.53 112.55,-983.53 455.55,-983.53 455.55,-923.53 112.55,-923.53"/>
<polygon fill="none" stroke="#29235c" points="112.55,-923.53 112.55,-983.53 455.55,-983.53 455.55,-923.53 112.55,-923.53"/>
<text text-anchor="start" x="123.55" y="-943.73" font-family="Helvetica,sans-Serif" font-size="32.00" fill="#29235c">userId &#160;&#160;&#160;</text>
<text text-anchor="start" x="366.35" y="-944.73" font-family="Helvetica,sans-Serif" font-style="italic" font-size="32.00" fill="#29235c">UUID</text>
<polygon fill="#e7e2dd" stroke="transparent" points="112.55,-863.53 112.55,-923.53 455.55,-923.53 455.55,-863.53 112.55,-863.53"/>
<polygon fill="none" stroke="#29235c" points="112.55,-863.53 112.55,-923.53 455.55,-923.53 455.55,-863.53 112.55,-863.53"/>
<text text-anchor="start" x="123.55" y="-883.73" font-family="Helvetica,sans-Serif" font-size="32.00" fill="#29235c">type &#160;&#160;&#160;</text>
<text text-anchor="start" x="224.05" y="-884.73" font-family="Helvetica,sans-Serif" font-style="italic" font-size="32.00" fill="#29235c">InteractionType</text>
<polygon fill="#e7e2dd" stroke="transparent" points="112.55,-803.53 112.55,-863.53 455.55,-863.53 455.55,-803.53 112.55,-803.53"/>
<polygon fill="none" stroke="#29235c" points="112.55,-803.53 112.55,-863.53 455.55,-863.53 455.55,-803.53 112.55,-803.53"/>
<text text-anchor="start" x="123.55" y="-823.73" font-family="Helvetica,sans-Serif" font-size="32.00" fill="#29235c">target &#160;&#160;&#160;</text>
<text text-anchor="start" x="360.99" y="-824.73" font-family="Helvetica,sans-Serif" font-style="italic" font-size="32.00" fill="#29235c">String</text>
<polygon fill="#e7e2dd" stroke="transparent" points="112.55,-743.53 112.55,-803.53 455.55,-803.53 455.55,-743.53 112.55,-743.53"/>
<polygon fill="none" stroke="#29235c" points="112.55,-743.53 112.55,-803.53 455.55,-803.53 455.55,-743.53 112.55,-743.53"/>
<text text-anchor="start" x="123.49" y="-763.73" font-family="Helvetica,sans-Serif" font-size="32.00" fill="#29235c">timestamp &#160;&#160;&#160;</text>
<text text-anchor="start" x="306.22" y="-764.73" font-family="Helvetica,sans-Serif" font-style="italic" font-size="32.00" fill="#29235c">DateTime</text>
<polygon fill="none" stroke="#29235c" stroke-width="2" points="111.05,-742.53 111.05,-1104.53 456.05,-1104.53 456.05,-742.53 111.05,-742.53"/>
</g>
<!-- Interaction&#45;&gt;InteractionType -->
<g id="edge14" class="edge">
<title>Interaction:e&#45;&gt;InteractionType:w</title>
<path fill="none" stroke="#29235c" stroke-width="3" d="M456.55,-893.53C598.11,-893.53 566.04,-697.53 707.6,-697.53"/>
</g>
<!-- Interaction&#45;&gt;User -->
<!-- Interaction&#45;&gt;User -->
<g id="edge8" class="edge">
<title>Interaction:e&#45;&gt;User:w</title>
<path fill="none" stroke="#29235c" stroke-width="3" d="M456.55,-953.53C624.35,-953.53 556.24,-1219.29 714.37,-1230.19"/>
<polygon fill="#29235c" stroke="#29235c" stroke-width="3" points="714.49,-1233.7 724.6,-1230.53 714.72,-1226.7 714.49,-1233.7"/>
<text text-anchor="middle" x="715.7" y="-1240.13" font-family="Helvetica,sans-Serif" font-size="32.00" fill="#29235c">1</text>
<text text-anchor="middle" x="450.33" y="-963.13" font-family="Helvetica,sans-Serif" font-size="32.00" fill="#29235c">*</text>
</g>
<!-- Profile -->
<g id="Profile" class="node">
<title>Profile</title>
<ellipse fill="none" stroke="black" stroke-width="0" cx="283.55" cy="-433.53" rx="268.9" ry="214.92"/>
<polygon fill="#1d71b8" stroke="transparent" points="95.55,-523.53 95.55,-583.53 471.55,-583.53 471.55,-523.53 95.55,-523.53"/>
<polygon fill="none" stroke="#29235c" points="95.55,-523.53 95.55,-583.53 471.55,-583.53 471.55,-523.53 95.55,-523.53"/>
<text text-anchor="start" x="175.97" y="-544.73" font-family="Helvetica,sans-Serif" font-weight="bold" font-size="32.00" fill="#ffffff"> &#160;&#160;&#160;&#160;&#160;&#160;Profile &#160;&#160;&#160;&#160;&#160;&#160;</text>
<polygon fill="#e7e2dd" stroke="transparent" points="95.55,-463.53 95.55,-523.53 471.55,-523.53 471.55,-463.53 95.55,-463.53"/>
<polygon fill="none" stroke="#29235c" points="95.55,-463.53 95.55,-523.53 471.55,-523.53 471.55,-463.53 95.55,-463.53"/>
<text text-anchor="start" x="106.55" y="-484.73" font-family="Helvetica,sans-Serif" font-weight="bold" font-size="32.00" fill="#29235c">id</text>
<text text-anchor="start" x="131.44" y="-484.73" font-family="Helvetica,sans-Serif" font-size="32.00" fill="#29235c"> &#160;&#160;&#160;</text>
<text text-anchor="start" x="382.35" y="-484.73" font-family="Helvetica,sans-Serif" font-style="italic" font-size="32.00" fill="#29235c">UUID</text>
<polygon fill="#e7e2dd" stroke="transparent" points="95.55,-403.53 95.55,-463.53 471.55,-463.53 471.55,-403.53 95.55,-403.53"/>
<polygon fill="none" stroke="#29235c" points="95.55,-403.53 95.55,-463.53 471.55,-463.53 471.55,-403.53 95.55,-403.53"/>
<text text-anchor="start" x="106.55" y="-423.73" font-family="Helvetica,sans-Serif" font-size="32.00" fill="#29235c">userId &#160;&#160;&#160;</text>
<text text-anchor="start" x="382.35" y="-424.73" font-family="Helvetica,sans-Serif" font-style="italic" font-size="32.00" fill="#29235c">UUID</text>
<polygon fill="#e7e2dd" stroke="transparent" points="95.55,-343.53 95.55,-403.53 471.55,-403.53 471.55,-343.53 95.55,-343.53"/>
<polygon fill="none" stroke="#29235c" points="95.55,-343.53 95.55,-403.53 471.55,-403.53 471.55,-343.53 95.55,-343.53"/>
<text text-anchor="start" x="106.14" y="-363.73" font-family="Helvetica,sans-Serif" font-size="32.00" fill="#29235c">profileType &#160;&#160;&#160;</text>
<text text-anchor="start" x="299.15" y="-364.73" font-family="Helvetica,sans-Serif" font-style="italic" font-size="32.00" fill="#29235c">ProfileType</text>
<polygon fill="#e7e2dd" stroke="transparent" points="95.55,-283.53 95.55,-343.53 471.55,-343.53 471.55,-283.53 95.55,-283.53"/>
<polygon fill="none" stroke="#29235c" points="95.55,-283.53 95.55,-343.53 471.55,-343.53 471.55,-283.53 95.55,-283.53"/>
<text text-anchor="start" x="106.55" y="-303.73" font-family="Helvetica,sans-Serif" font-size="32.00" fill="#29235c">assignedAt &#160;&#160;&#160;</text>
<text text-anchor="start" x="321.89" y="-304.73" font-family="Helvetica,sans-Serif" font-style="italic" font-size="32.00" fill="#29235c">DateTime</text>
<polygon fill="none" stroke="#29235c" stroke-width="2" points="94.55,-282.53 94.55,-584.53 472.55,-584.53 472.55,-282.53 94.55,-282.53"/>
</g>
<!-- Profile&#45;&gt;ProfileType -->
<g id="edge15" class="edge">
<title>Profile:e&#45;&gt;ProfileType:w</title>
<path fill="none" stroke="#29235c" stroke-width="3" d="M472.55,-373.53C580.5,-373.53 580.65,-262.53 688.6,-262.53"/>
</g>
<!-- Profile&#45;&gt;User -->
<!-- Profile&#45;&gt;User -->
<g id="edge10" class="edge">
<title>Profile:e&#45;&gt;User:w</title>
<path fill="none" stroke="#29235c" stroke-width="3" d="M472.55,-433.53C654.86,-433.53 543.17,-1201.23 714.57,-1229.72"/>
<polygon fill="#29235c" stroke="#29235c" stroke-width="3" points="714.35,-1233.21 724.6,-1230.53 714.91,-1226.24 714.35,-1233.21"/>
<text text-anchor="middle" x="715.7" y="-1201.73" font-family="Helvetica,sans-Serif" font-size="32.00" fill="#29235c">1</text>
<text text-anchor="middle" x="466.33" y="-443.13" font-family="Helvetica,sans-Serif" font-size="32.00" fill="#29235c">*</text>
</g>
</g>
</svg>
